# xmcd CD database file
#
# Track frame offsets:
#	150
#	14150
#	33305
#	55302
#	70662
#	89342
#	129690
#	161030
#	169202
#	184465
#	199945
#	211532
#	228020
#	241217
#	261985
#	276795
#	295067
#
# Disc length: 4181 seconds
#
# Revision: 0
# Processed by: cddbd v1.5.1PL0 Copyright (c) Steve Scherf et al.
# Submitted via: CDex 1.51
#
DISCID=f9105311
DTITLE=Chip Davis American Composer - A 20 Year Celebration
DYEAR=1994
DGENRE=New Age
TTITLE0=The 7 Stars of the Big Dipper  - Fresh Aire 7
TTITLE1=Fugue - Impresions
TTITLE2=Come Home To The Sea - Fresh Aire 6
TTITLE3=The 7 Metals Of The Sea - Fresh Aire 7
TTITLE4=Sunday Morning Coffee - Sunday Morning Coffee
TTITLE5=Earthrise - Return - Fresh Aire 5
TTITLE6=Dancing Flames - Fresh Aire 4
TTITLE7=Mist - Fresh Aire 1
TTITLE8=Chakra 3 - Fresh Aire 7
TTITLE9=Going To Another Place - Fresh Aire 2
TTITLE10=Hayin´ - Impressions
TTITLE11=Traditions Of  Christmas - A Fresh Aire Christmas
TTITLE12=Chocolate Fudge - Fresh Aire 1
TTITLE13=Toccata - Fresh Aire 3
TTITLE14=Midnight On A Full Moon - Fresh Aire 3
TTITLE15=Colorado Spoonin´ - Impressions
TTITLE16=Kanbai  - Romance
EXTD=YEAR: 1994
EXTT0=
EXTT1=
EXTT2=
EXTT3=
EXTT4=
EXTT5=
EXTT6=
EXTT7=
EXTT8=
EXTT9=
EXTT10=
EXTT11=
EXTT12=
EXTT13=
EXTT14=
EXTT15=
EXTT16=
PLAYORDER=
